<svg width="64" height="54" viewBox="0 0 64 54" fill="none" xmlns="http://www.w3.org/2000/svg">
<path d="M20.7992 38C18.1487 38 16 36.2034 16 33.9851V17.8483C16 16.6292 16.6638 15.4742 17.8 14.7134L31.0007 5.88049C31.8442 5.3114 32.9049 5 34 5C35.0951 5 36.1558 5.3114 36.9993 5.88049L50.1977 14.7134C51.3362 15.4742 52 16.6292 52 17.8483V33.9851C52 36.2034 49.8513 38 47.2008 38H20.7992Z" stroke="#CCCCCC" stroke-width="1.5" stroke-linecap="round" stroke-linejoin="round"/>
<path d="M28.375 38V27.9168C28.375 26.9444 28.8491 26.0118 29.693 25.3241C30.5369 24.6365 31.6815 24.2502 32.875 24.2502H35.125C36.3185 24.2502 37.4631 24.6365 38.307 25.3241C39.1509 26.0118 39.625 26.9444 39.625 27.9168V38" stroke="#CCCCCC" stroke-width="1.5" stroke-linecap="round" stroke-linejoin="round"/>
</svg>
