<svg width="40" height="41" viewBox="0 0 40 41" fill="none" xmlns="http://www.w3.org/2000/svg">
<path d="M31.0949 4.27426V17.9375H28.4749V6.87776H28.3474L25.3199 9.07895V6.59589L28.4749 4.27426H31.0899H31.0949Z" fill="#CCCCCC"/>
<path fill-rule="evenodd" clip-rule="evenodd" d="M28.4 36.1261C25.5575 36.1261 24.13 34.4426 23.995 32.8512H26.505C26.65 33.4227 27.3625 34.0044 28.4375 34.0044C30.4975 34.0044 31.3475 31.8801 31.27 29.2484H31.1225C30.7525 30.2477 29.6975 31.1498 27.97 31.1498C25.695 31.1498 23.67 29.5789 23.67 26.6449C23.67 23.7031 25.79 21.9427 28.6025 21.9427C31.3275 21.9427 33.76 23.5724 33.76 28.8281C33.76 33.6123 31.955 36.1261 28.4 36.1261ZM28.555 29.1177C29.815 29.1177 30.8875 28.2567 30.8875 26.6269C30.8875 25.0049 29.8925 24.0439 28.5375 24.0439C27.2375 24.0439 26.22 25.0049 26.22 26.6064C26.22 28.2464 27.265 29.1177 28.555 29.1177Z" fill="#CCCCCC"/>
<path d="M11.25 6.40625C11.25 6.06644 11.1183 5.74055 10.8839 5.50027C10.6495 5.25999 10.3315 5.125 9.99999 5.125C9.66847 5.125 9.35053 5.25999 9.11611 5.50027C8.88169 5.74055 8.74999 6.06644 8.74999 6.40625V31.5008L5.88499 28.5616C5.76877 28.4425 5.6308 28.348 5.47895 28.2835C5.3271 28.2191 5.16435 28.1859 4.99999 28.1859C4.83563 28.1859 4.67288 28.2191 4.52103 28.2835C4.36918 28.348 4.23121 28.4425 4.11499 28.5616C3.99877 28.6808 3.90658 28.8222 3.84368 28.9778C3.78079 29.1335 3.74841 29.3003 3.74841 29.4688C3.74841 29.6372 3.78079 29.804 3.84368 29.9597C3.90658 30.1153 3.99877 30.2567 4.11499 30.3759L9.11499 35.4983L9.13249 35.5162C9.36718 35.7508 9.6828 35.8808 10.0106 35.8779C10.3384 35.8751 10.6518 35.7395 10.8825 35.5009L15.8825 30.3759C16.1172 30.1356 16.2492 29.8097 16.2494 29.4697C16.2497 29.1297 16.1181 28.8035 15.8837 28.5629C15.6494 28.3223 15.3313 28.187 14.9996 28.1868C14.6679 28.1865 14.3497 28.3214 14.115 28.5616L11.25 31.5008V6.40625Z" fill="#CCCCCC"/>
</svg>
